<svg width="2006" height="1066" xmlns="http://www.w3.org/2000/svg" xmlns:xlink="http://www.w3.org/1999/xlink" xml:space="preserve" overflow="hidden"><g transform="translate(-489 -515)"><path d="M1518 554.501C1518 536.551 1532.55 522 1550.5 522L2455.5 522C2473.45 522 2488 536.551 2488 554.501L2488 684.499C2488 702.449 2473.45 717 2455.5 717L1550.5 717C1532.55 717 1518 702.449 1518 684.499Z" stroke="#000000" stroke-width="13.75" stroke-linejoin="round" stroke-miterlimit="10" fill="#10D1F8" fill-rule="evenodd" fill-opacity="0.301961"/><text font-family="Calibri,Calibri_MSFontService,sans-serif" font-weight="400" font-size="83" transform="matrix(1 0 0 1 1848.56 647)">Adressen</text><path d="M1518 994.501C1518 976.551 1532.55 962 1550.5 962L2455.5 962C2473.45 962 2488 976.551 2488 994.501L2488 1124.5C2488 1142.45 2473.45 1157 2455.5 1157L1550.5 1157C1532.55 1157 1518 1142.45 1518 1124.5Z" stroke="#000000" stroke-width="13.75" stroke-linejoin="round" stroke-miterlimit="10" fill="#10D1F8" fill-rule="evenodd" fill-opacity="0.301961"/><text font-family="Calibri,Calibri_MSFontService,sans-serif" font-weight="400" font-size="83" transform="matrix(1 0 0 1 1836.71 1087)">Rechnung</text><path d="M2084 1411.5C2084 1393.55 2098.55 1379 2116.5 1379L2455.5 1379C2473.45 1379 2488 1393.55 2488 1411.5L2488 1541.5C2488 1559.45 2473.45 1574 2455.5 1574L2116.5 1574C2098.55 1574 2084 1559.45 2084 1541.5Z" stroke="#000000" stroke-width="13.75" stroke-linejoin="round" stroke-miterlimit="10" fill="#10D1F8" fill-rule="evenodd" fill-opacity="0.301961"/><text font-family="Calibri,Calibri_MSFontService,sans-serif" font-weight="400" font-size="83" transform="matrix(1 0 0 1 2151.45 1504)">Position</text><path d="M2009.88 717 2009.88 948.753 1996.13 948.753 1996.12 717ZM2033 910.967 2003 962.398 1973 910.967C1971.09 907.688 1972.19 903.478 1975.47 901.565 1978.75 899.652 1982.96 900.759 1984.88 904.039L2008.94 945.289 1997.06 945.289 2021.12 904.039C2023.04 900.759 2027.25 899.652 2030.53 901.565 2033.81 903.478 2034.91 907.688 2033 910.967Z"/><path d="M2281.59 1384.29 2009.47 1170.81 2017.95 1159.99 2290.08 1373.47ZM2024.92 1212.33 2002.97 1156.98 2061.96 1165.12C2065.72 1165.64 2068.35 1169.11 2067.83 1172.87 2067.31 1176.63 2063.84 1179.26 2060.08 1178.74L2012.77 1172.21 2020.1 1162.87 2037.7 1207.26C2039.1 1210.79 2037.38 1214.79 2033.85 1216.19 2030.32 1217.59 2026.32 1215.86 2024.92 1212.33Z"/><text font-family="Calibri,Calibri_MSFontService,sans-serif" font-weight="400" font-size="83" transform="matrix(1 0 0 1 538.747 647)">Eltern</text><text font-family="Calibri,Calibri_MSFontService,sans-serif" font-weight="400" font-size="83" transform="matrix(1 0 0 1 737.801 647)">-</text><text font-family="Calibri,Calibri_MSFontService,sans-serif" font-weight="400" font-size="83" transform="matrix(1 0 0 1 763.009 647)">Tabelle </text><text font-family="Calibri,Calibri_MSFontService,sans-serif" font-weight="400" font-size="83" transform="matrix(1 0 0 1 538.747 1086)">Ausgangstabelle</text><text font-family="Calibri,Calibri_MSFontService,sans-serif" font-weight="400" font-size="83" transform="matrix(1 0 0 1 538.747 1504)">Kind</text><text font-family="Calibri,Calibri_MSFontService,sans-serif" font-weight="400" font-size="83" transform="matrix(1 0 0 1 687.705 1504)">-</text><text font-family="Calibri,Calibri_MSFontService,sans-serif" font-weight="400" font-size="83" transform="matrix(1 0 0 1 712.913 1504)">Tabelle</text><path d="M0 0C22.9199-1.2413e-14 41.5002 21.8261 41.5002 48.75L41.5002 48.75C41.5002 75.6738 60.0805 97.4999 83.0004 97.4999 60.0805 97.4999 41.5002 119.326 41.5002 146.25L41.5002 146.25C41.5002 173.174 22.9199 195-6.20653e-15 195" stroke="#000000" stroke-width="13.75" stroke-miterlimit="8" fill="none" fill-rule="evenodd" transform="matrix(-1 0 0 1 1367 522)"/><path d="M0 0C22.9199-1.2413e-14 41.5002 21.8261 41.5002 48.75L41.5002 48.75C41.5002 75.6738 60.0805 97.4999 83.0004 97.4999 60.0805 97.4999 41.5002 119.326 41.5002 146.25L41.5002 146.25C41.5002 173.174 22.9199 195-6.20653e-15 195" stroke="#000000" stroke-width="13.75" stroke-miterlimit="8" fill="none" fill-rule="evenodd" transform="matrix(-1 0 0 1 1367 962)"/><path d="M0 0C22.9199-1.2413e-14 41.5002 21.8261 41.5002 48.75L41.5002 48.75C41.5002 75.6738 60.0805 97.4999 83.0004 97.4999 60.0805 97.4999 41.5002 119.326 41.5002 146.25L41.5002 146.25C41.5002 173.174 22.9199 195-6.20653e-15 195" stroke="#000000" stroke-width="13.75" stroke-miterlimit="8" fill="none" fill-rule="evenodd" transform="matrix(-1 0 0 1 1367 1379)"/><path d="M1518 1411.5C1518 1393.55 1532.55 1379 1550.5 1379L1889.5 1379C1907.45 1379 1922 1393.55 1922 1411.5L1922 1541.5C1922 1559.45 1907.45 1574 1889.5 1574L1550.5 1574C1532.55 1574 1518 1559.45 1518 1541.5Z" stroke="#000000" stroke-width="13.75" stroke-linejoin="round" stroke-miterlimit="10" fill="#10D1F8" fill-rule="evenodd" fill-opacity="0.301961"/><text font-family="Calibri,Calibri_MSFontService,sans-serif" font-weight="400" font-size="83" transform="matrix(1 0 0 1 1585.78 1504)">Position</text><path d="M4.24346-5.40913 276.367 208.071 267.88 218.89-4.24346 5.40913ZM260.911 166.553 282.858 221.902 223.876 213.762C220.114 213.243 217.486 209.773 218.005 206.011 218.524 202.25 221.994 199.622 225.755 200.141L273.062 206.67 265.731 216.014 248.129 171.621C246.729 168.092 248.456 164.096 251.986 162.696 255.515 161.297 259.511 163.024 260.911 166.553Z" transform="matrix(1 0 0 -1 1720 1378.88)"/></g></svg>