<svg width="2006" height="1066" xmlns="http://www.w3.org/2000/svg" xmlns:xlink="http://www.w3.org/1999/xlink" xml:space="preserve" overflow="hidden"><g transform="translate(-489 -515)"><path d="M1518 554.501C1518 536.551 1532.55 522 1550.5 522L2455.5 522C2473.45 522 2488 536.551 2488 554.501L2488 684.499C2488 702.449 2473.45 717 2455.5 717L1550.5 717C1532.55 717 1518 702.449 1518 684.499Z" stroke="#A6A6A6" stroke-width="13.75" stroke-linejoin="round" stroke-miterlimit="10" fill="#10D1F8" fill-rule="evenodd" fill-opacity="0.301961"/><text fill="#A6A6A6" font-family="Calibri,Calibri_MSFontService,sans-serif" font-weight="400" font-size="83" transform="matrix(1 0 0 1 1848.56 647)">Adressen</text><path d="M1518 994.335C1518 976.477 1532.48 962 1550.33 962L2455.67 962C2473.52 962 2488 976.477 2488 994.335L2488 1123.67C2488 1141.52 2473.52 1156 2455.67 1156L1550.33 1156C1532.48 1156 1518 1141.52 1518 1123.67Z" stroke="#A6A6A6" stroke-width="13.75" stroke-linejoin="round" stroke-miterlimit="10" fill="#10D1F8" fill-rule="evenodd" fill-opacity="0.298039"/><text fill="#A6A6A6" font-family="Calibri,Calibri_MSFontService,sans-serif" font-weight="400" font-size="83" transform="matrix(1 0 0 1 1836.71 1086)">Rechnung</text><path d="M2084 1411.5C2084 1393.55 2098.55 1379 2116.5 1379L2455.5 1379C2473.45 1379 2488 1393.55 2488 1411.5L2488 1541.5C2488 1559.45 2473.45 1574 2455.5 1574L2116.5 1574C2098.55 1574 2084 1559.45 2084 1541.5Z" stroke="#A6A6A6" stroke-width="13.75" stroke-linejoin="round" stroke-miterlimit="10" fill="#10D1F8" fill-rule="evenodd" fill-opacity="0.301961"/><text fill="#A6A6A6" font-family="Calibri,Calibri_MSFontService,sans-serif" font-weight="400" font-size="83" transform="matrix(1 0 0 1 2151.45 1504)">Position</text><path d="M2009.88 717 2009.88 948.042 1996.13 948.042 1996.12 717ZM2033 910.256 2003 961.686 1973 910.256C1971.09 906.976 1972.19 902.767 1975.47 900.854 1978.75 898.94 1982.96 900.048 1984.88 903.328L2008.94 944.578 1997.06 944.578 2021.12 903.328C2023.04 900.048 2027.25 898.94 2030.53 900.853 2033.81 902.767 2034.91 906.976 2033 910.256Z" fill="#A6A6A6"/><path d="M2281.58 1384 2009.44 1169.82 2017.95 1159.02 2290.08 1373.19ZM2024.84 1211.36 2002.97 1155.98 2061.94 1164.21C2065.7 1164.74 2068.33 1168.21 2067.8 1171.97 2067.28 1175.73 2063.8 1178.35 2060.04 1177.83L2012.75 1171.23 2020.09 1161.89 2037.63 1206.31C2039.02 1209.85 2037.29 1213.84 2033.75 1215.23 2030.22 1216.63 2026.23 1214.89 2024.84 1211.36Z" fill="#A6A6A6"/><text fill="#A6A6A6" font-family="Calibri,Calibri_MSFontService,sans-serif" font-weight="400" font-size="83" transform="matrix(1 0 0 1 538.747 647)">Eltern</text><text fill="#A6A6A6" font-family="Calibri,Calibri_MSFontService,sans-serif" font-weight="400" font-size="83" transform="matrix(1 0 0 1 737.045 647)">t</text><text fill="#A6A6A6" font-family="Calibri,Calibri_MSFontService,sans-serif" font-weight="400" font-size="83" transform="matrix(1 0 0 1 763.537 647)">abelle </text><text fill="#A6A6A6" font-family="Calibri,Calibri_MSFontService,sans-serif" font-weight="400" font-size="83" transform="matrix(1 0 0 1 538.747 1086)">Ausgangstabelle</text><text fill="#A6A6A6" font-family="Calibri,Calibri_MSFontService,sans-serif" font-weight="400" font-size="83" transform="matrix(1 0 0 1 538.747 1504)">Kind</text><text fill="#A6A6A6" font-family="Calibri,Calibri_MSFontService,sans-serif" font-weight="400" font-size="83" transform="matrix(1 0 0 1 687.705 1504)">t</text><text fill="#A6A6A6" font-family="Calibri,Calibri_MSFontService,sans-serif" font-weight="400" font-size="83" transform="matrix(1 0 0 1 714.197 1504)">abelle</text><path d="M0 0C22.9199-1.2413e-14 41.5002 21.8261 41.5002 48.75L41.5002 48.75C41.5002 75.6738 60.0805 97.4999 83.0004 97.4999 60.0805 97.4999 41.5002 119.326 41.5002 146.25L41.5002 146.25C41.5002 173.174 22.9199 195-6.20653e-15 195" stroke="#A6A6A6" stroke-width="13.75" stroke-miterlimit="8" fill="none" fill-rule="evenodd" transform="matrix(-1 0 0 1 1367 522)"/><path d="M0 0C22.9199-1.2413e-14 41.5002 21.8261 41.5002 48.75L41.5002 48.75C41.5002 75.6738 60.0805 97.4999 83.0004 97.4999 60.0805 97.4999 41.5002 119.326 41.5002 146.25L41.5002 146.25C41.5002 173.174 22.9199 195-6.20653e-15 195" stroke="#A6A6A6" stroke-width="13.75" stroke-miterlimit="8" fill="none" fill-rule="evenodd" transform="matrix(-1 0 0 1 1367 962)"/><path d="M0 0C22.9199-1.2413e-14 41.5002 21.8261 41.5002 48.75L41.5002 48.75C41.5002 75.6738 60.0805 97.4999 83.0004 97.4999 60.0805 97.4999 41.5002 119.326 41.5002 146.25L41.5002 146.25C41.5002 173.174 22.9199 195-6.20653e-15 195" stroke="#A6A6A6" stroke-width="13.75" stroke-miterlimit="8" fill="none" fill-rule="evenodd" transform="matrix(-1 0 0 1 1367 1379)"/><path d="M1518 1411.5C1518 1393.55 1532.55 1379 1550.5 1379L1889.5 1379C1907.45 1379 1922 1393.55 1922 1411.5L1922 1541.5C1922 1559.45 1907.45 1574 1889.5 1574L1550.5 1574C1532.55 1574 1518 1559.45 1518 1541.5Z" stroke="#A6A6A6" stroke-width="13.75" stroke-linejoin="round" stroke-miterlimit="10" fill="#10D1F8" fill-rule="evenodd" fill-opacity="0.301961"/><text fill="#A6A6A6" font-family="Calibri,Calibri_MSFontService,sans-serif" font-weight="400" font-size="83" transform="matrix(1 0 0 1 1585.78 1504)">Position</text><path d="M4.25187-5.40252 276.388 208.772 267.884 219.577-4.25187 5.40252ZM260.997 167.23 282.858 222.613 223.888 214.381C220.128 213.856 217.505 210.382 218.03 206.622 218.555 202.861 222.029 200.238 225.789 200.763L273.086 207.366 265.741 216.699 248.207 172.279C246.813 168.747 248.546 164.754 252.078 163.36 255.609 161.966 259.603 163.699 260.997 167.23Z" fill="#A6A6A6" transform="matrix(1 0 0 -1 1720 1378.59)"/></g></svg>