<svg width="2561" height="2095" xmlns="http://www.w3.org/2000/svg" xmlns:xlink="http://www.w3.org/1999/xlink" xml:space="preserve" overflow="hidden"><g transform="translate(-392 -199)"><rect x="409.5" y="201.5" width="1364" height="1929" stroke="#A5A5A5" stroke-width="4.58333" stroke-miterlimit="8" fill="#0D1117"/><text fill="#A6A6A6" font-family="Calibri,Calibri_MSFontService,sans-serif" font-weight="700" font-size="83" transform="matrix(1 0 0 1 528 401)">E</text><text fill="#A6A6A6" font-family="Calibri,Calibri_MSFontService,sans-serif" font-weight="700" font-size="83" transform="matrix(1 0 0 1 568.104 401)">-</text><text fill="#A6A6A6" font-family="Calibri,Calibri_MSFontService,sans-serif" font-weight="700" font-size="83" transform="matrix(1 0 0 1 593.312 401)">Rechnung</text><path d="M475.284 931.047 782.995 931.047 782.995 1063.05 475.284 1063.05Z" fill="#7F7F7F" fill-rule="evenodd"/><path d="M782.995 931.047 1090.71 931.047 1090.71 1063.05 782.995 1063.05Z" fill="#7F7F7F" fill-rule="evenodd"/><path d="M1090.71 931.047 1398.42 931.047 1398.42 1063.05 1090.71 1063.05Z" fill="#7F7F7F" fill-rule="evenodd"/><path d="M1398.42 931.047 1706.13 931.047 1706.13 1063.05 1398.42 1063.05Z" fill="#7F7F7F" fill-rule="evenodd"/><path d="M475.284 1195.05 782.995 1195.05 782.995 1327.05 475.284 1327.05Z" fill="#7F7F7F" fill-rule="evenodd"/><path d="M782.995 1195.05 1090.71 1195.05 1090.71 1327.05 782.995 1327.05Z" fill="#7F7F7F" fill-rule="evenodd"/><path d="M1090.71 1195.05 1398.42 1195.05 1398.42 1327.05 1090.71 1327.05Z" fill="#7F7F7F" fill-rule="evenodd"/><path d="M1398.42 1195.05 1706.13 1195.05 1706.13 1327.05 1398.42 1327.05Z" fill="#7F7F7F" fill-rule="evenodd"/><path d="M1090.71 1459.05 1706.13 1459.05 1706.13 1591.05 1090.71 1591.05Z" fill="#7F7F7F" fill-rule="evenodd"/><path d="M782.995 928.756 782.995 1461.34" stroke="#7F7F7F" stroke-width="4.58333" stroke-linejoin="round" stroke-miterlimit="10" fill="none" fill-rule="evenodd"/><path d="M1090.71 928.756 1090.71 1857.34" stroke="#7F7F7F" stroke-width="4.58333" stroke-linejoin="round" stroke-miterlimit="10" fill="none" fill-rule="evenodd"/><path d="M1398.42 928.756 1398.42 1461.34" stroke="#7F7F7F" stroke-width="4.58333" stroke-linejoin="round" stroke-miterlimit="10" fill="none" fill-rule="evenodd"/><path d="M1398.42 1588.76 1398.42 1857.34" stroke="#7F7F7F" stroke-width="4.58333" stroke-linejoin="round" stroke-miterlimit="10" fill="none" fill-rule="evenodd"/><path d="M472.992 1063.05 1708.42 1063.05" stroke="#7F7F7F" stroke-width="4.58333" stroke-linejoin="round" stroke-miterlimit="10" fill="none" fill-rule="evenodd"/><path d="M472.992 1195.05 1708.42 1195.05" stroke="#7F7F7F" stroke-width="4.58333" stroke-linejoin="round" stroke-miterlimit="10" fill="none" fill-rule="evenodd"/><path d="M472.992 1327.05 1708.42 1327.05" stroke="#7F7F7F" stroke-width="4.58333" stroke-linejoin="round" stroke-miterlimit="10" fill="none" fill-rule="evenodd"/><path d="M472.992 1459.05 1708.42 1459.05" stroke="#7F7F7F" stroke-width="4.58333" stroke-linejoin="round" stroke-miterlimit="10" fill="none" fill-rule="evenodd"/><path d="M1088.41 1591.05 1708.42 1591.05" stroke="#7F7F7F" stroke-width="4.58333" stroke-linejoin="round" stroke-miterlimit="10" fill="none" fill-rule="evenodd"/><path d="M1088.41 1723.05 1708.42 1723.05" stroke="#7F7F7F" stroke-width="4.58333" stroke-linejoin="round" stroke-miterlimit="10" fill="none" fill-rule="evenodd"/><path d="M475.284 928.756 475.284 1461.34" stroke="#7F7F7F" stroke-width="4.58333" stroke-linejoin="round" stroke-miterlimit="10" fill="none" fill-rule="evenodd"/><path d="M1706.13 928.756 1706.13 1857.34" stroke="#7F7F7F" stroke-width="4.58333" stroke-linejoin="round" stroke-miterlimit="10" fill="none" fill-rule="evenodd"/><path d="M472.992 931.047 1708.42 931.047" stroke="#7F7F7F" stroke-width="4.58333" stroke-linejoin="round" stroke-miterlimit="10" fill="none" fill-rule="evenodd"/><path d="M1088.41 1855.05 1708.42 1855.05" stroke="#7F7F7F" stroke-width="4.58333" stroke-linejoin="round" stroke-miterlimit="10" fill="none" fill-rule="evenodd"/><text font-family="Calibri,Calibri_MSFontService,sans-serif" font-weight="700" font-size="83" transform="matrix(1 0 0 1 1330.41 1553)">Ust</text><text font-family="Calibri,Calibri_MSFontService,sans-serif" font-weight="700" font-size="83" transform="matrix(1 0 0 1 1444.65 1553)">.</text><rect x="475" y="928" width="1231" height="535" stroke="#7030A0" stroke-width="13.75" stroke-miterlimit="8" fill="none"/><rect x="1089" y="1477" width="616" height="382" stroke="#70AD47" stroke-width="13.75" stroke-miterlimit="8" fill="none"/><rect x="2044.5" y="509.5" width="682" height="965" stroke="#A5A5A5" stroke-width="4.58333" stroke-miterlimit="8" fill="#0D1117"/><path d="M2115.67 616 2647.33 616 2647.33 742.5 2115.67 742.5Z" fill="#7F7F7F" fill-rule="evenodd"/><path d="M2248.58 740.208 2248.58 876.792" stroke="#7F7F7F" stroke-width="4.58333" stroke-linejoin="round" stroke-miterlimit="10" fill="none" fill-rule="evenodd"/><path d="M2381.5 740.208 2381.5 876.792" stroke="#7F7F7F" stroke-width="4.58333" stroke-linejoin="round" stroke-miterlimit="10" fill="none" fill-rule="evenodd"/><path d="M2514.42 740.208 2514.42 876.792" stroke="#7F7F7F" stroke-width="4.58333" stroke-linejoin="round" stroke-miterlimit="10" fill="none" fill-rule="evenodd"/><path d="M2113.38 742.5 2649.62 742.5" stroke="#7F7F7F" stroke-width="4.58333" stroke-linejoin="round" stroke-miterlimit="10" fill="none" fill-rule="evenodd"/><path d="M2115.67 613.708 2115.67 876.792" stroke="#7F7F7F" stroke-width="4.58333" stroke-linejoin="round" stroke-miterlimit="10" fill="none" fill-rule="evenodd"/><path d="M2647.33 613.708 2647.33 876.792" stroke="#7F7F7F" stroke-width="4.58333" stroke-linejoin="round" stroke-miterlimit="10" fill="none" fill-rule="evenodd"/><path d="M2113.38 616 2649.62 616" stroke="#7F7F7F" stroke-width="4.58333" stroke-linejoin="round" stroke-miterlimit="10" fill="none" fill-rule="evenodd"/><path d="M2113.38 874.5 2649.62 874.5" stroke="#7F7F7F" stroke-width="4.58333" stroke-linejoin="round" stroke-miterlimit="10" fill="none" fill-rule="evenodd"/><text font-family="Calibri,Calibri_MSFontService,sans-serif" font-weight="700" font-size="64" transform="matrix(1 0 0 1 2273.16 701)">Position</text><rect x="2200.5" y="692.5" width="682" height="965" stroke="#A5A5A5" stroke-width="4.58333" stroke-miterlimit="8" fill="#0D1117"/><path d="M2271.71 798.762 2803.38 798.762 2803.38 925.262 2271.71 925.262Z" fill="#7F7F7F" fill-rule="evenodd"/><path d="M2404.63 922.971 2404.63 1059.55" stroke="#7F7F7F" stroke-width="4.58333" stroke-linejoin="round" stroke-miterlimit="10" fill="none" fill-rule="evenodd"/><path d="M2537.55 922.971 2537.55 1059.55" stroke="#7F7F7F" stroke-width="4.58333" stroke-linejoin="round" stroke-miterlimit="10" fill="none" fill-rule="evenodd"/><path d="M2670.46 922.971 2670.46 1059.55" stroke="#7F7F7F" stroke-width="4.58333" stroke-linejoin="round" stroke-miterlimit="10" fill="none" fill-rule="evenodd"/><path d="M2269.42 925.262 2805.67 925.262" stroke="#7F7F7F" stroke-width="4.58333" stroke-linejoin="round" stroke-miterlimit="10" fill="none" fill-rule="evenodd"/><path d="M2271.71 796.471 2271.71 1059.55" stroke="#7F7F7F" stroke-width="4.58333" stroke-linejoin="round" stroke-miterlimit="10" fill="none" fill-rule="evenodd"/><path d="M2803.38 796.471 2803.38 1059.55" stroke="#7F7F7F" stroke-width="4.58333" stroke-linejoin="round" stroke-miterlimit="10" fill="none" fill-rule="evenodd"/><path d="M2269.42 798.762 2805.67 798.762" stroke="#7F7F7F" stroke-width="4.58333" stroke-linejoin="round" stroke-miterlimit="10" fill="none" fill-rule="evenodd"/><path d="M2269.42 1057.26 2805.67 1057.26" stroke="#7F7F7F" stroke-width="4.58333" stroke-linejoin="round" stroke-miterlimit="10" fill="none" fill-rule="evenodd"/><text font-family="Calibri,Calibri_MSFontService,sans-serif" font-weight="700" font-size="64" transform="matrix(1 0 0 1 2429.21 884)">Position</text><path d="M1.55092-10.1952 1092.4 155.747 1089.3 176.138-1.55092 10.1952ZM1041.58 112.928 1111.08 169.02 1028.04 201.907C1022.75 204.004 1016.75 201.412 1014.66 196.117 1012.56 190.822 1015.15 184.829 1020.45 182.731L1087.04 156.354 1084.37 173.967 1028.62 128.978C1024.19 125.401 1023.5 118.908 1027.07 114.476 1030.65 110.044 1037.14 109.351 1041.58 112.928Z" fill="#7030A0" transform="matrix(-1 0 0 1 2200.53 1174.5)"/><path d="M1410.81 1644.5 1410.81 1777.95 1390.19 1777.95 1390.19 1644.5ZM1445.5 1721.27 1400.5 1798.42 1355.5 1721.27C1352.63 1716.35 1354.29 1710.04 1359.21 1707.17 1364.13 1704.3 1370.44 1705.96 1373.31 1710.88L1409.41 1772.75 1391.59 1772.75 1427.69 1710.88C1430.56 1705.96 1436.87 1704.3 1441.79 1707.17 1446.71 1710.04 1448.37 1716.35 1445.5 1721.27Z" fill="#70AD47"/><path d="M2.32707-10.0465 937.416 206.548 932.762 226.641-2.32707 10.0465ZM890.028 159.964 955.028 221.213 869.718 247.645C864.278 249.331 858.501 246.287 856.816 240.847 855.13 235.407 858.174 229.63 863.614 227.944L932.038 206.744 928.018 224.1 875.883 174.975C871.738 171.069 871.544 164.542 875.45 160.397 879.356 156.252 885.883 156.058 890.028 159.964Z" fill="#7030A0" transform="matrix(-1 0 0 1 2044.48 974.5)"/><rect x="495" y="539" width="411" height="60.0002" fill="#595959"/><rect x="495" y="631" width="734" height="60.9998" fill="#595959"/><rect x="495" y="724" width="734" height="60.0002" fill="#595959"/><rect x="495" y="816" width="734" height="59.9998" fill="#595959"/><rect x="1292" y="312" width="411" height="59.9998" fill="#595959"/><rect x="1350" y="516" width="353" height="60.0002" fill="#595959"/><rect x="1350" y="413" width="353" height="60.0002" fill="#595959"/><text fill="#A6A6A6" font-family="Calibri,Calibri_MSFontService,sans-serif" font-weight="400" font-size="83" transform="matrix(1 0 0 1 441.62 2222)">Hauptvoralge</text><text fill="#A6A6A6" font-family="Calibri,Calibri_MSFontService,sans-serif" font-weight="400" font-size="83" transform="matrix(1 0 0 1 2229.44 1749)">Untervorlage</text></g></svg>